<?xml version="1.0" standalone="no"?><svg xmlns="http://www.w3.org/2000/svg" viewBox="0 0 1440 320"><path fill="#f3f4f5" fill-opacity="1" d="M0,256L24,224C48,192,96,128,144,138.7C192,149,240,235,288,229.3C336,224,384,128,432,117.3C480,107,528,181,576,224C624,267,672,277,720,250.7C768,224,816,160,864,144C912,128,960,160,1008,176C1056,192,1104,192,1152,170.7C1200,149,1248,107,1296,122.7C1344,139,1392,213,1416,250.7L1440,288L1440,320L1416,320C1392,320,1344,320,1296,320C1248,320,1200,320,1152,320C1104,320,1056,320,1008,320C960,320,912,320,864,320C816,320,768,320,720,320C672,320,624,320,576,320C528,320,480,320,432,320C384,320,336,320,288,320C240,320,192,320,144,320C96,320,48,320,24,320L0,320Z"></path></svg>